<svg width="90" height="94" viewBox="0 100 600 300" fill="none" xmlns="http://www.w3.org/2000/svg">
<path d="M108.818 128.201L72.8185 112.701C72.8185 112.701 58.9286 104.363 54.3185 95.7013C49.9444 87.4835 50.2137 81.51 50.3185 72.2013C50.4168 63.4694 52.4371 58.7286 54.3185 50.2013C58.4567 31.4441 69.3184 4.20127 68.8185 3.20127C68.3186 2.20127 61.3184 5.20127 59.8185 6.20127C58.3186 7.20127 36.2441 26.4122 25.3185 42.7013C14.1201 59.3969 7.05213 69.7845 4.31846 89.7013L4.29812 89.8495C2.98262 99.4332 2.18764 105.225 4.31846 114.701C6.29308 123.483 9.14887 128.006 13.8185 135.701C22.4003 149.844 30.238 155.973 43.2515 166.149L43.3185 166.201C58.2584 177.884 85.8185 189.701 85.8185 189.701L93.3184 156.701L108.818 128.201Z" fill="#E3E2D4"/>
<path d="M161.818 86.7013C145.757 98.2053 127.318 123.701 127.318 123.701H114.818L108.818 128.201L93.3184 156.701L85.8185 189.701L86.8185 197.201L94.3185 204.201C94.3185 204.201 93.6704 214.56 93.3185 221.201C92.8634 229.79 92.3185 243.201 92.3185 243.201C92.3185 243.201 87.0494 246.384 86.8185 249.701C86.5662 253.325 92.3185 257.201 92.3185 257.201L91.3185 273.201C91.3185 273.201 120.938 264.98 140.318 261.701C177.516 255.408 236.818 257.201 236.818 257.201H258.318V209.701V57.7013H241.818C241.818 57.7013 218.905 61.9361 204.818 66.7013C187.275 72.6359 176.875 75.917 161.818 86.7013Z" fill="#AAAAAA"/>
<path d="M241.818 57.7013C241.818 57.7013 218.905 61.9361 204.818 66.7013C187.275 72.6359 176.875 75.917 161.818 86.7013C145.757 98.2053 127.318 123.701 127.318 123.701H114.818L108.818 128.201M241.818 57.7013V54.2013L239.318 50.2013L258.318 24.2013M241.818 57.7013H258.318V209.701V257.201H236.818C236.818 257.201 177.516 255.408 140.318 261.701C120.938 264.98 91.3185 273.201 91.3185 273.201L92.3185 257.201C92.3185 257.201 86.5662 253.325 86.8185 249.701C87.0494 246.384 92.3185 243.201 92.3185 243.201C92.3185 243.201 92.8634 229.79 93.3185 221.201C93.6704 214.56 94.3185 204.201 94.3185 204.201L86.8185 197.201L85.8185 189.701M108.818 128.201L72.8185 112.701C72.8185 112.701 58.9286 104.363 54.3185 95.7013C49.9444 87.4835 50.2137 81.51 50.3185 72.2013C50.4168 63.4694 52.4371 58.7286 54.3185 50.2013C58.4567 31.4441 69.3184 4.20127 68.8185 3.20127C68.3186 2.20127 61.3184 5.20127 59.8185 6.20127C58.3186 7.20127 36.2441 26.4122 25.3185 42.7013C14.1201 59.3969 7.05213 69.7845 4.31846 89.7013M108.818 128.201L93.3184 156.701L85.8185 189.701M4.31846 89.7013L4.29812 89.8495M4.31846 89.7013C4.31167 89.7508 4.30488 89.8002 4.29812 89.8495M43.3185 166.201C58.2584 177.884 85.8185 189.701 85.8185 189.701M43.3185 166.201L43.2515 166.149M43.3185 166.201C43.2961 166.184 43.2738 166.166 43.2515 166.149M4.29812 89.8495C2.98262 99.4332 2.18764 105.225 4.31846 114.701C6.29308 123.483 9.14887 128.006 13.8185 135.701C22.4003 149.844 30.238 155.973 43.2515 166.149" stroke="black" stroke-width="2"/>
<path d="M108.818 128.201L72.8185 112.701C72.8185 112.701 58.9286 104.363 54.3185 95.7013C49.9444 87.4835 50.2137 81.51 50.3185 72.2013C50.4168 63.4694 52.4371 58.7286 54.3185 50.2013C58.4567 31.4441 69.3184 4.20127 68.8185 3.20127C68.3186 2.20127 61.3184 5.20127 59.8185 6.20127C58.3186 7.20127 36.2441 26.4122 25.3185 42.7013C14.1201 59.3969 7.05213 69.7845 4.31846 89.7013L4.29812 89.8495C2.98262 99.4332 2.18764 105.225 4.31846 114.701C6.29308 123.483 9.14887 128.006 13.8185 135.701C22.4003 149.844 30.238 155.973 43.2515 166.149L43.3185 166.201C58.2584 177.884 85.8185 189.701 85.8185 189.701L93.3184 156.701L108.818 128.201Z" fill="#E3E2D4"/>
<path d="M161.818 86.7013C145.757 98.2053 127.318 123.701 127.318 123.701H114.818L108.818 128.201L93.3184 156.701L85.8185 189.701L86.8185 197.201L94.3185 204.201C94.3185 204.201 93.6704 214.56 93.3185 221.201C92.8634 229.79 92.3185 243.201 92.3185 243.201C92.3185 243.201 87.0494 246.384 86.8185 249.701C86.5662 253.325 92.3185 257.201 92.3185 257.201L91.3185 273.201C91.3185 273.201 120.938 264.98 140.318 261.701C177.516 255.408 236.818 257.201 236.818 257.201H258.318V209.701V57.7013H241.818C241.818 57.7013 218.905 61.9361 204.818 66.7013C187.275 72.6359 176.875 75.917 161.818 86.7013Z" fill="#AAAAAA"/>
<path d="M241.818 57.7013C241.818 57.7013 218.905 61.9361 204.818 66.7013C187.275 72.6359 176.875 75.917 161.818 86.7013C145.757 98.2053 127.318 123.701 127.318 123.701H114.818L108.818 128.201M241.818 57.7013V54.2013L239.318 50.2013L258.318 24.2013M241.818 57.7013H258.318V209.701V257.201H236.818C236.818 257.201 177.516 255.408 140.318 261.701C120.938 264.98 91.3185 273.201 91.3185 273.201L92.3185 257.201C92.3185 257.201 86.5662 253.325 86.8185 249.701C87.0494 246.384 92.3185 243.201 92.3185 243.201C92.3185 243.201 92.8634 229.79 93.3185 221.201C93.6704 214.56 94.3185 204.201 94.3185 204.201L86.8185 197.201L85.8185 189.701M108.818 128.201L72.8185 112.701C72.8185 112.701 58.9286 104.363 54.3185 95.7013C49.9444 87.4835 50.2137 81.51 50.3185 72.2013C50.4168 63.4694 52.4371 58.7286 54.3185 50.2013C58.4567 31.4441 69.3184 4.20127 68.8185 3.20127C68.3186 2.20127 61.3184 5.20127 59.8185 6.20127C58.3186 7.20127 36.2441 26.4122 25.3185 42.7013C14.1201 59.3969 7.05213 69.7845 4.31846 89.7013M108.818 128.201L93.3184 156.701L85.8185 189.701M4.31846 89.7013L4.29812 89.8495M4.31846 89.7013C4.31167 89.7508 4.30488 89.8002 4.29812 89.8495M43.3185 166.201C58.2584 177.884 85.8185 189.701 85.8185 189.701M43.3185 166.201L43.2515 166.149M43.3185 166.201C43.2961 166.184 43.2738 166.166 43.2515 166.149M4.29812 89.8495C2.98262 99.4332 2.18764 105.225 4.31846 114.701C6.29308 123.483 9.14887 128.006 13.8185 135.701C22.4003 149.844 30.238 155.973 43.2515 166.149" stroke="#3F3434" stroke-width="5"/>
<path d="M407.5 128.201L443.5 112.701C443.5 112.701 457.39 104.363 462 95.7013C466.374 87.4835 466.105 81.51 466 72.2013C465.902 63.4694 463.881 58.7286 462 50.2013C457.862 31.4441 447 4.20127 447.5 3.20127C448 2.20127 455 5.20127 456.5 6.20127C458 7.20127 480.074 26.4122 491 42.7013C502.198 59.3969 509.266 69.7845 512 89.7013L512.02 89.8495C513.336 99.4332 514.131 105.225 512 114.701C510.025 123.483 507.169 128.006 502.5 135.701C493.918 149.844 486.08 155.973 473.067 166.149L473 166.201C458.06 177.884 430.5 189.701 430.5 189.701L423 156.701L407.5 128.201Z" fill="#E3E2D4"/>
<path d="M354.5 86.7013C370.561 98.2053 389 123.701 389 123.701H401.5L407.5 128.201L423 156.701L430.5 189.701L429.5 197.201L422 204.201C422 204.201 422.648 214.56 423 221.201C423.455 229.79 424 243.201 424 243.201C424 243.201 429.269 246.384 429.5 249.701C429.752 253.325 424 257.201 424 257.201L425 273.201C425 273.201 395.38 264.98 376 261.701C338.802 255.408 279.5 257.201 279.5 257.201H258V209.701V57.7013H274.5C274.5 57.7013 297.413 61.9361 311.5 66.7013C329.043 72.6359 339.444 75.917 354.5 86.7013Z" fill="#AAAAAA"/>
<path d="M274.5 57.7013C274.5 57.7013 297.413 61.9361 311.5 66.7013C329.043 72.6359 339.444 75.917 354.5 86.7013C370.561 98.2053 389 123.701 389 123.701H401.5L407.5 128.201M274.5 57.7013V54.2013L277 50.2013L258 24.2013M274.5 57.7013H258V209.701V257.201H279.5C279.5 257.201 338.802 255.408 376 261.701C395.38 264.98 425 273.201 425 273.201L424 257.201C424 257.201 429.752 253.325 429.5 249.701C429.269 246.384 424 243.201 424 243.201C424 243.201 423.455 229.79 423 221.201C422.648 214.56 422 204.201 422 204.201L429.5 197.201L430.5 189.701M407.5 128.201L443.5 112.701C443.5 112.701 457.39 104.363 462 95.7013C466.374 87.4835 466.105 81.51 466 72.2013C465.902 63.4694 463.881 58.7286 462 50.2013C457.862 31.4441 447 4.20127 447.5 3.20127C448 2.20127 455 5.20127 456.5 6.20127C458 7.20127 480.074 26.4122 491 42.7013C502.198 59.3969 509.266 69.7845 512 89.7013M407.5 128.201L423 156.701L430.5 189.701M512 89.7013L512.02 89.8495M512 89.7013C512.007 89.7508 512.013 89.8002 512.02 89.8495M473 166.201C458.06 177.884 430.5 189.701 430.5 189.701M473 166.201L473.067 166.149M473 166.201C473.022 166.184 473.045 166.166 473.067 166.149M512.02 89.8495C513.336 99.4332 514.131 105.225 512 114.701C510.025 123.483 507.169 128.006 502.5 135.701C493.918 149.844 486.08 155.973 473.067 166.149" stroke="#3F3434" stroke-width="5"/>
<path d="M257.318 240.201C256.662 240.201 256.012 240.02 255.405 239.668C254.798 239.317 254.247 238.801 253.783 238.151C253.319 237.501 252.95 236.729 252.699 235.88C252.448 235.031 252.318 234.12 252.318 233.201C252.318 232.282 252.448 231.372 252.699 230.522C252.95 229.673 253.319 228.901 253.783 228.251C254.247 227.601 254.798 227.086 255.405 226.734C256.012 226.382 256.662 226.201 257.318 226.201L257.318 233.201V240.201Z" fill="#817F7F"/>
<path d="M257.318 240.201C256.662 240.201 256.012 240.02 255.405 239.668C254.798 239.317 254.247 238.801 253.783 238.151C253.319 237.501 252.95 236.729 252.699 235.88C252.448 235.031 252.318 234.12 252.318 233.201C252.318 232.282 252.448 231.372 252.699 230.522C252.95 229.673 253.319 228.901 253.783 228.251C254.247 227.601 254.798 227.086 255.405 226.734C256.012 226.382 256.662 226.201 257.318 226.201L257.318 233.201V240.201Z" fill="#817F7F"/>
<path d="M257.318 240.201C256.662 240.201 256.012 240.02 255.405 239.668C254.798 239.317 254.247 238.801 253.783 238.151C253.319 237.501 252.95 236.729 252.699 235.88C252.448 235.031 252.318 234.12 252.318 233.201C252.318 232.282 252.448 231.372 252.699 230.522C252.95 229.673 253.319 228.901 253.783 228.251C254.247 227.601 254.798 227.086 255.405 226.734C256.012 226.382 256.662 226.201 257.318 226.201L257.318 233.201V240.201Z" fill="#817F7F"/>
<path d="M257.318 184.201C256.662 184.201 256.012 184.02 255.405 183.668C254.798 183.317 254.247 182.801 253.783 182.151C253.319 181.501 252.95 180.729 252.699 179.88C252.448 179.031 252.318 178.12 252.318 177.201C252.318 176.282 252.448 175.372 252.699 174.522C252.95 173.673 253.319 172.901 253.783 172.251C254.247 171.601 254.798 171.086 255.405 170.734C256.012 170.382 256.662 170.201 257.318 170.201L257.318 177.201V184.201Z" fill="#817F7F"/>
<path d="M257.318 184.201C256.662 184.201 256.012 184.02 255.405 183.668C254.798 183.317 254.247 182.801 253.783 182.151C253.319 181.501 252.95 180.729 252.699 179.88C252.448 179.031 252.318 178.12 252.318 177.201C252.318 176.282 252.448 175.372 252.699 174.522C252.95 173.673 253.319 172.901 253.783 172.251C254.247 171.601 254.798 171.086 255.405 170.734C256.012 170.382 256.662 170.201 257.318 170.201L257.318 177.201V184.201Z" fill="#817F7F"/>
<path d="M257.318 184.201C256.662 184.201 256.012 184.02 255.405 183.668C254.798 183.317 254.247 182.801 253.783 182.151C253.319 181.501 252.95 180.729 252.699 179.88C252.448 179.031 252.318 178.12 252.318 177.201C252.318 176.282 252.448 175.372 252.699 174.522C252.95 173.673 253.319 172.901 253.783 172.251C254.247 171.601 254.798 171.086 255.405 170.734C256.012 170.382 256.662 170.201 257.318 170.201L257.318 177.201V184.201Z" fill="#817F7F"/>
<path d="M257.318 104.201C256.662 104.201 256.012 104.059 255.405 103.783C254.798 103.506 254.247 103.101 253.783 102.59C253.319 102.08 252.95 101.473 252.699 100.806C252.448 100.139 252.318 99.4234 252.318 98.7012C252.318 97.9789 252.448 97.2637 252.699 96.5964C252.95 95.9291 253.319 95.3228 253.783 94.8121C254.247 94.3014 254.798 93.8962 255.405 93.6198C256.012 93.3434 256.662 93.2012 257.318 93.2012L257.318 98.7012V104.201Z" fill="#817F7F"/>
<path d="M257.318 104.201C256.662 104.201 256.012 104.059 255.405 103.783C254.798 103.506 254.247 103.101 253.783 102.59C253.319 102.08 252.95 101.473 252.699 100.806C252.448 100.139 252.318 99.4234 252.318 98.7012C252.318 97.9789 252.448 97.2637 252.699 96.5964C252.95 95.9291 253.319 95.3228 253.783 94.8121C254.247 94.3014 254.798 93.8962 255.405 93.6198C256.012 93.3434 256.662 93.2012 257.318 93.2012L257.318 98.7012V104.201Z" fill="#817F7F"/>
<path d="M257.318 104.201C256.662 104.201 256.012 104.059 255.405 103.783C254.798 103.506 254.247 103.101 253.783 102.59C253.319 102.08 252.95 101.473 252.699 100.806C252.448 100.139 252.318 99.4234 252.318 98.7012C252.318 97.9789 252.448 97.2637 252.699 96.5964C252.95 95.9291 253.319 95.3228 253.783 94.8121C254.247 94.3014 254.798 93.8962 255.405 93.6198C256.012 93.3434 256.662 93.2012 257.318 93.2012L257.318 98.7012V104.201Z" fill="#817F7F"/>
<path d="M258.318 63.2012C257.662 63.2012 257.012 63.1365 256.405 63.0109C255.798 62.8852 255.247 62.7011 254.783 62.4689C254.319 62.2368 253.95 61.9612 253.699 61.6579C253.448 61.3546 253.318 61.0295 253.318 60.7012C253.318 60.3729 253.448 60.0478 253.699 59.7445C253.95 59.4411 254.319 59.1656 254.783 58.9334C255.247 58.7013 255.798 58.5171 256.405 58.3915C257.012 58.2658 257.662 58.2012 258.318 58.2012L258.318 60.7012V63.2012Z" fill="#817F7F"/>
<path d="M258.318 63.2012C257.662 63.2012 257.012 63.1365 256.405 63.0109C255.798 62.8852 255.247 62.7011 254.783 62.4689C254.319 62.2368 253.95 61.9612 253.699 61.6579C253.448 61.3546 253.318 61.0295 253.318 60.7012C253.318 60.3729 253.448 60.0478 253.699 59.7445C253.95 59.4411 254.319 59.1656 254.783 58.9334C255.247 58.7013 255.798 58.5171 256.405 58.3915C257.012 58.2658 257.662 58.2012 258.318 58.2012L258.318 60.7012V63.2012Z" fill="#817F7F"/>
<path d="M258.318 63.2012C257.662 63.2012 257.012 63.1365 256.405 63.0109C255.798 62.8852 255.247 62.7011 254.783 62.4689C254.319 62.2368 253.95 61.9612 253.699 61.6579C253.448 61.3546 253.318 61.0295 253.318 60.7012C253.318 60.3729 253.448 60.0478 253.699 59.7445C253.95 59.4411 254.319 59.1656 254.783 58.9334C255.247 58.7013 255.798 58.5171 256.405 58.3915C257.012 58.2658 257.662 58.2012 258.318 58.2012L258.318 60.7012V63.2012Z" fill="#817F7F"/>
<circle cx="173.318" cy="235.201" r="6" fill="#817F7F"/>
<ellipse cx="110.318" cy="242.201" rx="4" ry="6" fill="#817F7F"/>
<path d="M259.318 240.402C259.975 240.402 260.625 240.221 261.232 239.87C261.838 239.518 262.39 239.002 262.854 238.352C263.318 237.702 263.686 236.93 263.938 236.081C264.189 235.232 264.318 234.322 264.318 233.402C264.318 232.483 264.189 231.573 263.938 230.724C263.686 229.874 263.318 229.103 262.854 228.453C262.39 227.803 261.838 227.287 261.232 226.935C260.625 226.583 259.975 226.402 259.318 226.402L259.318 233.402V240.402Z" fill="#817F7F"/>
<path d="M259.318 240.402C259.975 240.402 260.625 240.221 261.232 239.87C261.838 239.518 262.39 239.002 262.854 238.352C263.318 237.702 263.686 236.93 263.938 236.081C264.189 235.232 264.318 234.322 264.318 233.402C264.318 232.483 264.189 231.573 263.938 230.724C263.686 229.874 263.318 229.103 262.854 228.453C262.39 227.803 261.838 227.287 261.232 226.935C260.625 226.583 259.975 226.402 259.318 226.402L259.318 233.402V240.402Z" fill="#817F7F"/>
<path d="M259.318 240.402C259.975 240.402 260.625 240.221 261.232 239.87C261.838 239.518 262.39 239.002 262.854 238.352C263.318 237.702 263.686 236.93 263.938 236.081C264.189 235.232 264.318 234.322 264.318 233.402C264.318 232.483 264.189 231.573 263.938 230.724C263.686 229.874 263.318 229.103 262.854 228.453C262.39 227.803 261.838 227.287 261.232 226.935C260.625 226.583 259.975 226.402 259.318 226.402L259.318 233.402V240.402Z" fill="#817F7F"/>
<path d="M259.318 184.402C259.975 184.402 260.625 184.221 261.232 183.87C261.838 183.518 262.39 183.002 262.854 182.352C263.318 181.702 263.686 180.93 263.938 180.081C264.189 179.232 264.318 178.322 264.318 177.402C264.318 176.483 264.189 175.573 263.938 174.724C263.686 173.874 263.318 173.103 262.854 172.453C262.39 171.803 261.838 171.287 261.232 170.935C260.625 170.583 259.975 170.402 259.318 170.402L259.318 177.402V184.402Z" fill="#817F7F"/>
<path d="M259.318 184.402C259.975 184.402 260.625 184.221 261.232 183.87C261.838 183.518 262.39 183.002 262.854 182.352C263.318 181.702 263.686 180.93 263.938 180.081C264.189 179.232 264.318 178.322 264.318 177.402C264.318 176.483 264.189 175.573 263.938 174.724C263.686 173.874 263.318 173.103 262.854 172.453C262.39 171.803 261.838 171.287 261.232 170.935C260.625 170.583 259.975 170.402 259.318 170.402L259.318 177.402V184.402Z" fill="#817F7F"/>
<path d="M259.318 184.402C259.975 184.402 260.625 184.221 261.232 183.87C261.838 183.518 262.39 183.002 262.854 182.352C263.318 181.702 263.686 180.93 263.938 180.081C264.189 179.232 264.318 178.322 264.318 177.402C264.318 176.483 264.189 175.573 263.938 174.724C263.686 173.874 263.318 173.103 262.854 172.453C262.39 171.803 261.838 171.287 261.232 170.935C260.625 170.583 259.975 170.402 259.318 170.402L259.318 177.402V184.402Z" fill="#817F7F"/>
<path d="M259.318 104.402C259.975 104.402 260.625 104.26 261.232 103.984C261.838 103.707 262.39 103.302 262.854 102.791C263.318 102.281 263.686 101.674 263.938 101.007C264.189 100.34 264.318 99.6246 264.318 98.9023C264.318 98.1801 264.189 97.4649 263.938 96.7976C263.686 96.1303 263.318 95.524 262.854 95.0133C262.39 94.5025 261.838 94.0974 261.232 93.821C260.625 93.5446 259.975 93.4023 259.318 93.4023L259.318 98.9023V104.402Z" fill="#817F7F"/>
<path d="M259.318 104.402C259.975 104.402 260.625 104.26 261.232 103.984C261.838 103.707 262.39 103.302 262.854 102.791C263.318 102.281 263.686 101.674 263.938 101.007C264.189 100.34 264.318 99.6246 264.318 98.9023C264.318 98.1801 264.189 97.4649 263.938 96.7976C263.686 96.1303 263.318 95.524 262.854 95.0133C262.39 94.5025 261.838 94.0974 261.232 93.821C260.625 93.5446 259.975 93.4023 259.318 93.4023L259.318 98.9023V104.402Z" fill="#817F7F"/>
<path d="M259.318 104.402C259.975 104.402 260.625 104.26 261.232 103.984C261.838 103.707 262.39 103.302 262.854 102.791C263.318 102.281 263.686 101.674 263.938 101.007C264.189 100.34 264.318 99.6246 264.318 98.9023C264.318 98.1801 264.189 97.4649 263.938 96.7976C263.686 96.1303 263.318 95.524 262.854 95.0133C262.39 94.5025 261.838 94.0974 261.232 93.821C260.625 93.5446 259.975 93.4023 259.318 93.4023L259.318 98.9023V104.402Z" fill="#817F7F"/>
<path d="M258.318 63.4023C258.975 63.4023 259.625 63.3377 260.232 63.212C260.838 63.0864 261.39 62.9023 261.854 62.6701C262.318 62.438 262.686 62.1624 262.938 61.8591C263.189 61.5557 263.318 61.2306 263.318 60.9023C263.318 60.574 263.189 60.2489 262.938 59.9456C262.686 59.6423 262.318 59.3667 261.854 59.1346C261.39 58.9024 260.838 58.7183 260.232 58.5926C259.625 58.467 258.975 58.4023 258.318 58.4023L258.318 60.9023V63.4023Z" fill="#817F7F"/>
<path d="M258.318 63.4023C258.975 63.4023 259.625 63.3377 260.232 63.212C260.838 63.0864 261.39 62.9023 261.854 62.6701C262.318 62.438 262.686 62.1624 262.938 61.8591C263.189 61.5557 263.318 61.2306 263.318 60.9023C263.318 60.574 263.189 60.2489 262.938 59.9456C262.686 59.6423 262.318 59.3667 261.854 59.1346C261.39 58.9024 260.838 58.7183 260.232 58.5926C259.625 58.467 258.975 58.4023 258.318 58.4023L258.318 60.9023V63.4023Z" fill="#817F7F"/>
<path d="M258.318 63.4023C258.975 63.4023 259.625 63.3377 260.232 63.212C260.838 63.0864 261.39 62.9023 261.854 62.6701C262.318 62.438 262.686 62.1624 262.938 61.8591C263.189 61.5557 263.318 61.2306 263.318 60.9023C263.318 60.574 263.189 60.2489 262.938 59.9456C262.686 59.6423 262.318 59.3667 261.854 59.1346C261.39 58.9024 260.838 58.7183 260.232 58.5926C259.625 58.467 258.975 58.4023 258.318 58.4023L258.318 60.9023V63.4023Z" fill="#817F7F"/>
<circle cx="6" cy="6" r="6" transform="matrix(-1 0 0 1 349.318 229.402)" fill="#817F7F"/>
<ellipse cx="4" cy="6" rx="4" ry="6" transform="matrix(-1 0 0 1 410.318 236.402)" fill="#817F7F"/>
<path d="M257.318 259.201H260.318" stroke="#D9D9D9"/>
<line x1="258.318" y1="256.201" x2="258.318" y2="58.2012" stroke="#808080" stroke-width="6"/>
<path d="M258.159 23.9428C258.159 23.9194 258.157 23.8972 258.154 23.874" stroke="#3F3434" stroke-width="2" stroke-linecap="round"/>
<path d="M259.397 23.3881C259.39 23.3855 259.385 23.3802 259.379 23.3754C259.356 23.3553 259.332 23.3372 259.307 23.3198C259.276 23.2983 259.243 23.2754 259.216 23.2486C259.162 23.1955 259.125 23.1243 259.085 23.061C259.049 23.0035 259.014 22.9487 258.967 22.8991C258.915 22.8444 258.856 22.7999 258.799 22.7513C258.741 22.7014 258.686 22.646 258.631 22.593C258.604 22.5676 258.574 22.5261 258.537 22.5156" stroke="#3F3434" stroke-width="2" stroke-linecap="round"/>
<path d="M257.201 23.647C257.297 23.4389 257.418 23.2441 257.524 23.041" stroke="#3F3434" stroke-width="2" stroke-linecap="round"/>
<path d="M257.387 23.4958C257.45 23.377 257.523 23.2663 257.605 23.1596C257.648 23.1053 257.69 23.05 257.743 23.0059" stroke="#3F3434" stroke-width="2" stroke-linecap="round"/>
<path d="M256.895 23.5049C256.92 23.5065 256.945 23.4898 256.963 23.4706C256.986 23.447 257.014 23.4301 257.036 23.4061C257.058 23.3823 257.077 23.3564 257.098 23.3321C257.161 23.2594 257.245 23.2036 257.29 23.1162C257.363 22.9732 257.495 22.8893 257.612 22.7862C257.653 22.7508 257.691 22.7143 257.732 22.6798C257.762 22.6548 257.789 22.6244 257.823 22.6057C257.862 22.5844 257.902 22.5566 257.939 22.5312C257.972 22.5086 258.007 22.4928 258.041 22.4725C258.089 22.4439 258.138 22.4286 258.188 22.4056C258.201 22.3998 258.253 22.3861 258.257 22.3789" stroke="#3F3434" stroke-width="2" stroke-linecap="round"/>
<path d="M257.078 258.404C257.296 258.379 257.518 258.391 257.736 258.379C257.924 258.369 258.109 258.327 258.297 258.324C258.492 258.32 258.686 258.312 258.882 258.312C259.366 258.312 259.858 258.287 260.341 258.318C260.54 258.331 260.748 258.35 260.939 258.404" stroke="#3F3434" stroke-linecap="round"/>
<path d="M257.229 258.844C258.573 258.844 259.918 258.81 261.263 258.81" stroke="#3F3434" stroke-linecap="round"/>
<path d="M256.848 259.179C256.954 259.165 257.054 259.137 257.163 259.134C257.261 259.131 257.359 259.133 257.457 259.133C257.779 259.133 258.101 259.133 258.422 259.133C258.573 259.133 258.718 259.117 258.867 259.105C259.171 259.08 259.482 259.098 259.787 259.098C260.194 259.098 260.602 259.087 261.009 259.087" stroke="#3F3434" stroke-linecap="round"/>
<path d="M257.359 259.211C257.554 259.211 257.753 259.207 257.949 259.207C258.108 259.207 258.267 259.207 258.426 259.207C258.607 259.207 258.788 259.199 258.97 259.199C259.215 259.199 259.461 259.195 259.707 259.195C259.88 259.195 260.053 259.203 260.227 259.203" stroke="#3F3434" stroke-linecap="round"/>
<path d="M75.5027 124.057C73.4223 124.702 66.4875 134.416 69.9549 140.192C72.0436 143.67 78.9701 146 78.9701 146C78.9701 146 88.4218 139.965 87.9853 134.383C87.5119 128.329 77.5831 123.412 75.5027 124.057Z" fill="#E2E1E1"/>
<path d="M473.002 73.5028C471.863 76.5555 482.995 109.26 489.496 94.7601C495.997 80.2601 505.281 77.1724 494.439 67.7172C476.942 52.4585 488.5 49 479.001 43.0024C469.502 37.0049 474.141 70.4501 473.002 73.5028Z" fill="#E2E1E1"/>
<path d="M244.742 54.8232H271.516" stroke="#C6C5C5" stroke-linecap="round"/>
<path d="M271.965 53.0228C271.967 52.9876 271.988 52.9449 272.001 52.9126C272.037 52.8254 272.064 52.736 272.089 52.6448C272.128 52.4986 272.181 52.3657 272.241 52.2255C272.356 51.9545 272.493 51.6824 272.672 51.4482C272.765 51.3267 272.833 51.1919 272.942 51.0828C273.014 51.0115 273.086 50.9327 273.145 50.8506C273.238 50.7204 273.323 50.5926 273.401 50.4538C273.425 50.4116 273.44 50.3759 273.474 50.3418" stroke="#C6C5C5" stroke-linecap="round"/>
<path d="M271.62 54.3406C271.611 53.9363 271.607 53.5324 271.607 53.1279" stroke="#C6C5C5" stroke-linecap="round"/>
<path d="M271.479 54.3148C271.479 53.7534 271.469 53.1961 271.531 52.6377" stroke="#C6C5C5" stroke-linecap="round"/>
<path d="M271.375 53.2823C271.5 52.6386 271.635 52.0147 271.956 51.4375" stroke="#C6C5C5" stroke-linecap="round"/>
<path d="M271.621 52.1994C271.858 51.6666 272.129 51.1504 272.399 50.6341C272.46 50.5179 272.52 50.4017 272.589 50.29" stroke="#C6C5C5" stroke-linecap="round"/>
<path d="M258.234 29C258.209 29.0995 258.187 29.1925 258.143 29.2856C258.065 29.45 257.98 29.609 257.897 29.7707C257.808 29.9458 257.702 30.1021 257.58 30.2558C257.449 30.4218 257.323 30.5905 257.195 30.7585C257.066 30.9269 256.959 31.1111 256.831 31.2809C256.749 31.3905 256.675 31.5009 256.603 31.6176C256.456 31.857 256.285 32.0903 256.11 32.3103C255.938 32.5272 255.76 32.7372 255.577 32.9463C255.428 33.1167 255.281 33.2833 255.161 33.4763C255.095 33.5828 255.023 33.6864 254.948 33.787C254.836 33.9376 254.731 34.0965 254.625 34.2517C254.535 34.385 254.441 34.5138 254.344 34.6428C254.271 34.7399 254.201 34.8382 254.124 34.9322C254.093 34.9695 254.07 35.0147 254.055 35.0598" stroke="#C6C5C5" stroke-linecap="round"/>
<path d="M253.868 35.2891C253.822 35.4166 253.744 35.5211 253.681 35.638C253.631 35.7297 253.569 35.8197 253.506 35.9023C253.307 36.1629 253.098 36.4114 252.885 36.6593C252.837 36.7153 252.785 36.7681 252.736 36.8229C252.678 36.8878 252.629 36.9597 252.572 37.0253C252.506 37.1012 252.438 37.1763 252.375 37.2546C252.315 37.3295 252.248 37.4085 252.196 37.4892C252.142 37.5724 252.076 37.6457 252.021 37.7279C251.968 37.8069 251.916 37.8854 251.866 37.9662C251.791 38.0872 251.711 38.2026 251.629 38.319C251.51 38.4882 251.382 38.6507 251.264 38.8206C251.168 38.9581 251.072 39.0973 250.969 39.2296C250.886 39.3373 250.816 39.4557 250.732 39.562C250.64 39.6772 250.544 39.7877 250.453 39.9039C250.35 40.0368 250.251 40.1695 250.153 40.3058C250.085 40.4006 250 40.4839 249.938 40.5829C249.828 40.7577 249.709 40.9221 249.587 41.0888C249.526 41.1733 249.46 41.2582 249.408 41.3489" stroke="#C6C5C5" stroke-linecap="round"/>
<path d="M249.28 41.4854C249.278 41.5088 249.271 41.5291 249.271 41.5534" stroke="#C6C5C5" stroke-linecap="round"/>
<path d="M249.084 41.5879C248.931 41.8354 248.751 42.0675 248.591 42.3113C248.461 42.5105 248.342 42.7181 248.212 42.9165C248.054 43.1556 247.903 43.4022 247.753 43.6461C247.6 43.8949 247.429 44.1309 247.271 44.3762C247.164 44.5433 247.038 44.7046 246.909 44.8561C246.744 45.051 246.591 45.2559 246.433 45.4566C246.252 45.687 246.076 45.9235 245.961 46.1923" stroke="#C6C5C5" stroke-linecap="round"/>
<path d="M246.071 45.9287C246.034 45.938 246.007 45.9874 245.988 46.0176C245.954 46.0717 245.922 46.1275 245.892 46.184C245.835 46.295 245.765 46.4 245.699 46.506C245.548 46.7479 245.36 46.966 245.203 47.2035C245.007 47.4989 244.763 47.7614 244.539 48.0347C244.333 48.2858 244.14 48.5494 243.945 48.8102C243.664 49.1875 243.447 49.6064 243.152 49.9733C243.083 50.0585 243.01 50.1362 242.952 50.2268C242.927 50.265 242.888 50.3126 242.871 50.3459" stroke="#C6C5C5" stroke-linecap="round"/>
<path d="M248.947 41.8012C249.033 41.7223 249.148 41.6868 249.257 41.6518C249.398 41.6062 249.53 41.5447 249.668 41.4922" stroke="#C6C5C5" stroke-linecap="round"/>
<path d="M250.677 40.9975C250.479 41.3544 250.267 41.6995 250.012 42.0199C249.905 42.1548 249.785 42.3075 249.649 42.4176C249.643 42.4224 249.628 42.4333 249.627 42.4256C249.626 42.4108 249.639 42.3981 249.646 42.3855C249.672 42.345 249.7 42.306 249.727 42.2665C250.103 41.7205 250.461 41.1609 250.846 40.621C250.873 40.582 250.89 40.521 250.936 40.5094C250.969 40.5012 250.919 40.5753 250.905 40.6061C250.861 40.7037 250.812 40.7989 250.763 40.8939C250.543 41.3185 250.3 41.7298 250.039 42.1303C249.896 42.3496 249.829 42.4378 249.69 42.6361C249.636 42.7124 249.582 42.794 249.706 42.6504C250.058 42.242 250.373 41.8033 250.726 41.3951C250.749 41.3683 250.818 41.2962 250.81 41.3305C250.8 41.3704 250.783 41.4085 250.766 41.446C250.668 41.6625 250.498 41.9906 250.397 42.1807C250.299 42.3663 250.198 42.5507 250.098 42.7351C249.959 42.9906 249.789 43.2327 249.686 43.5047C249.617 43.6859 249.983 43.2547 250.121 43.119" stroke="#C6C5C5" stroke-linecap="round"/>
<line x1="242.596" y1="50.7059" x2="258.596" y2="28.7059" stroke="#C6C5C5"/>
<line x1="242.596" y1="50.7059" x2="258.596" y2="28.7059" stroke="#C6C5C5"/>
<line x1="258.4" y1="29.7" x2="273.4" y2="49.7" stroke="#C6C5C5"/>
<path d="M258.404 29.4229C258.411 29.4869 258.43 29.5501 258.441 29.6136" stroke="#C6C5C5" stroke-linecap="round"/>
<path d="M259.469 29.1757C259.464 29.1283 259.43 29.0836 259.4 29.0487C259.392 29.0391 259.383 29.0304 259.375 29.0203C259.373 29.0172 259.371 29.0146 259.367 29.0125C259.365 29.0108 259.364 29.003 259.362 29.0053C259.353 29.0156 259.36 29.0502 259.363 29.0624C259.364 29.0698 259.371 29.0832 259.375 29.0702" stroke="#3F3434" stroke-linecap="round"/>
<path d="M259.512 29.152C259.503 29.0888 259.449 29.0356 259.414 28.986C259.391 28.9539 259.36 28.9267 259.332 28.8986C259.315 28.8805 259.303 28.8579 259.285 28.8395C259.272 28.8257 259.262 28.8088 259.252 28.7927C259.243 28.7776 259.226 28.7637 259.215 28.7495C259.183 28.7093 259.155 28.6642 259.129 28.6199C259.111 28.5897 259.084 28.5651 259.063 28.5368C259.044 28.512 259.025 28.4873 259.004 28.4645C258.972 28.4307 258.94 28.3975 258.908 28.3647C258.883 28.3399 258.865 28.3107 258.841 28.2857C258.823 28.2667 258.806 28.2466 258.787 28.228C258.771 28.2117 258.758 28.1899 258.738 28.1777C258.702 28.1557 258.68 28.1444 258.636 28.1395C258.611 28.1366 258.589 28.1312 258.564 28.1267C258.542 28.1225 258.52 28.1228 258.498 28.1149C258.465 28.1031 258.43 28.0969 258.397 28.0865C258.355 28.0734 258.302 28.0817 258.259 28.0817C258.21 28.0817 258.167 28.0853 258.121 28.1013C258.081 28.1153 258.046 28.1409 258.006 28.1577C257.935 28.1882 257.862 28.2195 257.803 28.2714C257.743 28.3252 257.691 28.3858 257.632 28.4413C257.586 28.485 257.534 28.5212 257.484 28.5605C257.451 28.5867 257.43 28.6181 257.405 28.6512C257.351 28.7203 257.295 28.779 257.227 28.8339C257.182 28.8699 257.137 28.9039 257.097 28.9441C257.063 28.9776 257.018 29.002 256.992 29.0427" stroke="#3F3434" stroke-linecap="round"/>
<path d="M259.672 29.5699C259.672 29.5483 259.674 29.5292 259.664 29.5096C259.642 29.4645 259.602 29.435 259.563 29.4043C259.511 29.3629 259.48 29.31 259.436 29.2611C259.39 29.2103 259.338 29.1659 259.293 29.1146C259.221 29.0337 259.164 28.945 259.098 28.8594C259.026 28.7664 258.981 28.6552 258.902 28.5669C258.865 28.5242 258.826 28.483 258.788 28.4412C258.757 28.408 258.726 28.368 258.687 28.3442C258.653 28.3239 258.614 28.3141 258.578 28.2984C258.529 28.2765 258.472 28.2587 258.419 28.2457C258.353 28.2293 258.293 28.1997 258.228 28.1793C258.163 28.1586 258.085 28.1569 258.017 28.1676C257.988 28.1722 257.961 28.1841 257.941 28.2075C257.932 28.2185 257.908 28.2418 257.93 28.2418C257.973 28.2418 258.016 28.234 258.059 28.234C258.095 28.234 258.137 28.2279 258.173 28.2348C258.211 28.2423 258.246 28.2543 258.285 28.2576C258.296 28.2585 258.306 28.2641 258.317 28.2661C258.344 28.271 258.371 28.2691 258.398 28.2691C258.454 28.2691 258.509 28.2676 258.564 28.275C258.579 28.2769 258.593 28.2788 258.607 28.28C258.607 28.28 258.62 28.2809 258.623 28.2808C258.625 28.2808 258.619 28.2796 258.618 28.2791C258.573 28.2672 258.529 28.2562 258.485 28.242C258.391 28.2113 258.291 28.2066 258.193 28.2066C258.155 28.2066 258.116 28.205 258.078 28.2086C258.064 28.2099 258.05 28.2144 258.035 28.2144C258.016 28.2144 258.003 28.2242 257.986 28.2292C257.951 28.2392 257.89 28.257 257.872 28.2926C257.863 28.3102 257.856 28.3147 257.835 28.3218C257.751 28.3505 257.664 28.3758 257.59 28.4254" stroke="#3F3434" stroke-linecap="round"/>
<path d="M244.811 54.2366C244.838 54.1343 244.828 54.0186 244.828 53.9137C244.828 53.7747 244.831 53.6353 244.828 53.4964C244.827 53.4376 244.786 53.3685 244.759 53.3175C244.723 53.2489 244.681 53.1813 244.639 53.1158C244.457 52.8322 244.259 52.5618 244.099 52.2649C244.038 52.1538 243.974 52.0433 243.923 51.9277C243.889 51.8504 243.832 51.7901 243.785 51.7212C243.679 51.5667 243.555 51.4206 243.433 51.2785C243.305 51.1307 243.19 50.9477 243.132 50.7596C243.099 50.6494 243.025 50.5431 243.025 50.4248" stroke="#C6C5C5" stroke-linecap="round"/>
<path d="M242.5 50.5L258.5 30L273.5 50L271 54.5H245.5L242.5 50.5Z" fill="#C6C5C5"/>
<path d="M274.507 49.2266C274.505 49.3939 274.487 49.5601 274.487 49.7278C274.487 49.8753 274.479 50.0111 274.444 50.1558C274.4 50.3346 274.362 50.5304 274.297 50.7036C274.262 50.7967 274.227 50.8926 274.198 50.9875C274.172 51.0721 274.107 51.1474 274.062 51.2231C274.004 51.3213 273.938 51.4144 273.878 51.5115C273.828 51.5933 273.768 51.6678 273.711 51.7449C273.653 51.8231 273.591 51.8992 273.535 51.9789C273.473 52.0674 273.428 52.1655 273.369 52.2561C273.264 52.4177 273.151 52.5736 273.048 52.7363C272.929 52.9223 272.805 53.1202 272.73 53.3284C272.678 53.4747 272.656 53.6319 272.616 53.7825C272.589 53.884 272.546 53.9766 272.512 54.0753C272.496 54.1214 272.461 54.1881 272.461 54.2366" stroke="#3F3434" stroke-linecap="round"/>
<path d="M272.519 54.8766C272.519 54.8128 272.507 54.752 272.505 54.6889C272.505 54.6557 272.492 54.625 272.492 54.5907C272.492 54.5531 272.492 54.5156 272.492 54.478C272.492 54.3767 272.495 54.2763 272.499 54.1755C272.503 54.0727 272.532 53.9681 272.549 53.8667C272.56 53.7982 272.577 53.7268 272.596 53.6598C272.618 53.5772 272.664 53.5017 272.689 53.4197C272.729 53.2887 272.796 53.165 272.848 53.0385C272.878 52.9634 272.918 52.8949 272.956 52.8235C273.016 52.7103 273.1 52.6165 273.173 52.5125C273.263 52.3852 273.334 52.2452 273.423 52.1172C273.496 52.0127 273.57 51.9096 273.642 51.8047" stroke="#3F3434" stroke-linecap="round"/>
<path d="M273.91 51.2701C273.91 51.1958 273.988 51.1285 274.012 51.0625C274.023 51.033 274.04 50.9986 274.053 50.9701C274.077 50.9188 274.087 50.86 274.108 50.8068C274.158 50.6776 274.212 50.5422 274.245 50.4071C274.266 50.3185 274.272 50.2333 274.272 50.1416C274.272 50.0812 274.283 50.0061 274.27 49.9473C274.264 49.9191 274.251 49.8792 274.234 49.8552C274.221 49.8358 274.216 49.8146 274.203 49.7957C274.189 49.774 274.18 49.7513 274.176 49.726C274.173 49.7106 274.157 49.6959 274.156 49.6798C274.152 49.6394 274.135 49.6072 274.135 49.5654" stroke="#3F3434" stroke-linecap="round"/>
<path d="M241.729 50.2695C241.729 50.3387 241.767 50.4198 241.784 50.4866C241.826 50.658 241.835 50.8835 241.797 51.0539" stroke="#3F3434" stroke-linecap="round"/>
<path d="M241.688 49.8984C241.7 50.3126 241.853 50.7073 241.853 51.1231" stroke="#3F3434" stroke-linecap="round"/>
<path d="M241.977 50.0635C242.049 50.2316 242.043 50.4271 242.051 50.607C242.058 50.7515 242.059 50.8959 242.059 51.0405" stroke="#3F3434" stroke-linecap="round"/>
<path d="M242.018 49.7197C242.103 49.9486 242.146 50.2021 242.195 50.4406C242.251 50.7112 242.27 50.9722 242.252 51.2471" stroke="#3F3434" stroke-linecap="round"/>
<path d="M242.141 49.417C242.174 49.8539 242.272 50.2832 242.303 50.7212C242.325 51.0471 242.307 51.3426 242.237 51.6599" stroke="#3F3434" stroke-linecap="round"/>
<path d="M274.567 49.083C274.414 49.4822 274.261 49.8666 274.235 50.2986C274.228 50.4045 274.202 50.839 274.337 50.884" stroke="#3F3434" stroke-linecap="round"/>
<path d="M274.031 49.1211C274.031 49.4978 273.989 49.873 273.992 50.2494C273.994 50.388 273.999 50.657 274.146 50.7305" stroke="#3F3434" stroke-linecap="round"/>
<path d="M274.279 49.1592C274.088 49.514 274.09 49.9869 274.061 50.3801C274.045 50.6036 274.022 50.866 274.164 51.056" stroke="#3F3434" stroke-linecap="round"/>
<path d="M274.183 49.4854C273.962 49.6082 273.992 50.0594 273.992 50.2698C273.992 50.4874 274.009 50.7599 274.145 50.9415" stroke="#3F3434" stroke-linecap="round"/>
<path d="M274.163 49.4658C273.921 49.6177 273.777 49.8792 273.755 50.1651C273.738 50.3831 273.767 50.6118 273.864 50.8091C273.894 50.8695 273.922 50.943 273.991 50.9603" stroke="#3F3434" stroke-linecap="round"/>
<path d="M274.107 49.2549C273.97 49.2549 273.91 49.5147 273.879 49.6125C273.744 50.0424 273.855 50.4396 274.011 50.8451" stroke="#3F3434" stroke-linecap="round"/>
<path d="M242.127 49.3242C242.473 49.509 242.458 50.1746 242.476 50.4973C242.493 50.8116 242.454 51.2665 242.15 51.4494" stroke="#3F3434" stroke-linecap="round"/>
<path d="M242.285 49.3018C242.712 49.459 242.757 50.0297 242.823 50.4096C242.875 50.7076 242.969 51.3013 242.647 51.4948" stroke="#3F3434" stroke-linecap="round"/>
<path d="M242.557 49.2344C242.831 49.5563 242.903 50.0381 242.931 50.4452C242.961 50.8811 242.853 51.2079 242.602 51.563" stroke="#3F3434" stroke-linecap="round"/>
</svg>
